<svg width="140" height="120" viewBox="0 0 140 120" fill="none" xmlns="http://www.w3.org/2000/svg">
<g style="mix-blend-mode:multiply" opacity="0.2">
<path d="M86.71 114.67C86.71 117.59 73.61 119.96 57.46 119.96C41.31 119.96 28.21 117.59 28.21 114.67C28.21 113.21 32.16 111.9 37.42 110.85C38.26 110.68 38.4 115.71 39.94 116.97C45.24 121.32 46.96 118.58 50.18 116.8C51.7 115.96 52.06 109.52 52.78 109.48C55.59 109.32 54.37 109.38 57.48 109.38C58.98 109.38 58.28 109.47 59.72 109.43C60.39 109.41 60.47 115.08 61.71 116.08C62.59 116.8 66.05 119.08 68.36 118.94C70.3 118.83 72.6 115.53 73.58 114.87C74.26 114.42 74.27 110.17 75.01 110.25C83.27 111.2 86.71 112.78 86.71 114.67Z" fill="#262626"/>
</g>
<path opacity="0.6" d="M106.97 18.79H95.15V39.5H106.97V18.79Z" fill="url(#paint0_linear_818_1776)"/>
<path d="M45.01 119.62C40.68 119.62 37.15 116.1 37.15 111.76V83.7799C37.15 83.4999 37.37 83.2799 37.65 83.2799C37.93 83.2799 38.15 83.4999 38.15 83.7799V111.77C38.15 115.55 41.23 118.63 45.01 118.63C48.79 118.63 51.87 115.55 51.87 111.77L52.64 92.6299C52.68 90.6999 54.65 90.7199 55.49 90.7199H55.64C56.72 90.7199 57.6 91.5599 57.65 92.6399L60.41 111C60.96 115.6 63.67 118.36 67.66 118.4C69.14 118.42 70.53 117.85 71.64 116.75C73.21 115.2 74.15 112.73 74.15 110.15L71.41 62.8799C71.4 62.7099 71.48 62.5499 71.62 62.4499C84.26 53.3599 87.49 45.0999 88.89 38.9099C90.39 32.2999 83.58 30.4399 83.29 30.3699C83.06 30.3099 82.91 30.0999 82.92 29.8699C83.14 24.6299 82.06 23.1499 81.4 22.7299C80.95 22.4499 80.49 22.5199 80.22 22.5999C78.15 37.0299 73.91 42.6199 70.71 44.7599C67.85 46.6699 65.54 46.1099 65.44 46.0799C65.17 46.0099 65.01 45.7399 65.08 45.4699C65.15 45.1999 65.42 45.0399 65.69 45.1099C65.77 45.1299 67.71 45.5799 70.2 43.8899C73.24 41.8299 77.28 36.3899 79.27 22.1699C79.29 22.0099 79.39 21.8799 79.52 21.7999C79.57 21.7699 80.74 21.1399 81.91 21.8699C83.38 22.7799 84.06 25.3499 83.93 29.5299C85.52 30.0799 91.35 32.5599 89.86 39.1399C88.43 45.4599 85.15 53.8799 72.42 63.1099L75.15 110.14C75.15 113.01 74.1 115.74 72.34 117.48C71.04 118.77 69.41 119.46 67.65 119.42C63.18 119.37 60.03 116.2 59.42 111.15L56.65 92.7399C56.62 92.1499 56.18 91.7199 55.64 91.7199H55.48C54.26 91.7199 53.65 91.8499 53.63 92.6599L52.86 111.79C52.87 116.1 49.34 119.62 45.01 119.62Z" fill="var(--illustration-stroke-color, #686868)"/>
<path d="M57.85 52.05C57.67 52.05 57.49 51.95 57.41 51.78C57.28 51.53 57.38 51.23 57.62 51.11L58.23 50.79C64.77 47.69 68.99 41.02 68.99 33.8C68.99 23.44 60.56 15.01 50.2 15.01C39.84 15.01 31.41 23.44 31.41 33.8C31.41 39.18 33.72 44.31 37.76 47.88L38.6 48.58C38.81 48.76 38.84 49.07 38.67 49.28C38.49 49.49 38.18 49.52 37.97 49.35L37.11 48.64C32.85 44.87 30.41 39.47 30.41 33.8C30.41 22.89 39.29 14.01 50.2 14.01C61.11 14.01 69.99 22.89 69.99 33.8C69.99 41.4 65.55 48.42 58.68 51.68L58.08 51.99C58 52.04 57.92 52.05 57.85 52.05Z" fill="var(--illustration-stroke-color, #686868)"/>
<path d="M52.83 83.7999H33.85C30.07 83.7999 27 80.7299 27 76.9499V55.5299C27 51.7499 30.07 48.6799 33.85 48.6799H52.84C56.62 48.6799 59.69 51.7499 59.69 55.5299V76.9599C59.68 80.7299 56.61 83.7999 52.83 83.7999ZM33.85 49.6799C30.62 49.6799 28 52.2999 28 55.5299V76.9599C28 80.1799 30.62 82.8099 33.85 82.8099H52.84C56.07 82.8099 58.69 80.1899 58.69 76.9599V55.5299C58.69 52.2999 56.07 49.6799 52.84 49.6799H33.85Z" fill="var(--illustration-stroke-color, #686868)"/>
<path d="M37.94 91.56C37.93 91.56 37.92 91.56 37.91 91.56C32.61 91.23 31.46 83.47 31.42 83.14C31.38 82.87 31.57 82.61 31.85 82.58C32.12 82.54 32.38 82.73 32.41 83.01C32.42 83.08 33.49 90.29 37.98 90.57C38.26 90.59 38.46 90.82 38.45 91.1C38.42 91.36 38.2 91.56 37.94 91.56Z" fill="var(--illustration-stroke-color, #686868)"/>
<path d="M37.7 15.47C39.2077 15.47 40.43 14.2477 40.43 12.74C40.43 11.2323 39.2077 10.01 37.7 10.01C36.1923 10.01 34.97 11.2323 34.97 12.74C34.97 14.2477 36.1923 15.47 37.7 15.47Z" fill="#FF8853"/>
<path d="M37.71 15.97C35.93 15.97 34.48 14.52 34.48 12.74C34.48 10.96 35.93 9.51001 37.71 9.51001C39.49 9.51001 40.94 10.96 40.94 12.74C40.94 14.52 39.49 15.97 37.71 15.97ZM37.71 10.51C36.48 10.51 35.48 11.51 35.48 12.74C35.48 13.97 36.48 14.97 37.71 14.97C38.94 14.97 39.94 13.97 39.94 12.74C39.94 11.51 38.94 10.51 37.71 10.51Z" fill="var(--illustration-stroke-color, #686868)"/>
<path d="M68.23 40.2098C68.21 40.2098 68.19 40.2098 68.17 40.2098C61.87 39.4698 57.3 34.0798 57.3 27.3998C57.3 23.5198 58.69 20.3398 61.42 17.9398C61.63 17.7598 61.94 17.7798 62.13 17.9898C62.31 18.1998 62.29 18.5098 62.08 18.6998C59.57 20.8998 58.3 23.8198 58.3 27.4098C58.3 33.5698 62.5 38.5398 68.29 39.2298C68.56 39.2598 68.76 39.5098 68.73 39.7898C68.7 40.0198 68.48 40.2098 68.23 40.2098Z" fill="var(--illustration-stroke-color, #686868)"/>
<path d="M112.29 44.1799H88.23C87.95 44.1799 87.73 43.9599 87.73 43.6799C87.73 43.3999 87.95 43.1799 88.23 43.1799H111.78V1.91992H58.53V15.9399C58.53 16.2199 58.31 16.4399 58.03 16.4399C57.75 16.4399 57.53 16.2199 57.53 15.9399V1.41992C57.53 1.13992 57.75 0.919922 58.03 0.919922H112.28C112.56 0.919922 112.78 1.13992 112.78 1.41992V43.6799C112.79 43.9599 112.56 44.1799 112.29 44.1799Z" fill="var(--illustration-stroke-color, #686868)"/>
<path d="M107.33 39.7299H95.13C94.85 39.7299 94.63 39.5099 94.63 39.2299V18.8499C94.63 18.5699 94.85 18.3499 95.13 18.3499H107.34C107.62 18.3499 107.84 18.5699 107.84 18.8499V39.2299C107.83 39.5099 107.61 39.7299 107.33 39.7299ZM95.63 38.7299H106.84V19.3499H95.63V38.7299Z" fill="var(--illustration-stroke-color, #686868)"/>
<path d="M89.89 14.2898C89.76 14.2898 89.62 14.2398 89.53 14.1298L85.49 9.84982L82.37 14.0798C82.28 14.2098 82.13 14.2798 81.97 14.2798H72.63C72.52 14.2798 72.41 14.2398 72.32 14.1698L68.93 11.4398L66.08 14.1398C65.99 14.2298 65.86 14.2798 65.74 14.2798H58.23C57.95 14.2798 57.73 14.0598 57.73 13.7798C57.73 13.4998 57.95 13.2798 58.23 13.2798H65.54L68.56 10.4198C68.74 10.2498 69.02 10.2398 69.22 10.3898L72.81 13.2798H81.72L85.05 8.76982C85.14 8.64982 85.27 8.57982 85.42 8.56982C85.57 8.56982 85.71 8.61982 85.81 8.72982L89.95 13.1098L93.46 10.3398C93.66 10.1898 93.93 10.1998 94.11 10.3698L97.18 13.2798H111.88C112.16 13.2798 112.38 13.4998 112.38 13.7798C112.38 14.0598 112.16 14.2798 111.88 14.2798H96.98C96.85 14.2798 96.73 14.2298 96.64 14.1398L93.74 11.3898L90.21 14.1698C90.11 14.2498 90 14.2898 89.89 14.2898Z" fill="var(--illustration-stroke-color, #686868)"/>
<path d="M81.34 15.5598L79.35 18.0398H83.29L81.34 15.5598Z" fill="var(--illustration-stroke-color, #686868)"/>
<path d="M93.83 7.43997L95.83 4.96997H91.88L93.83 7.43997Z" fill="var(--illustration-stroke-color, #686868)"/>
<path d="M105.2 23.3599H97.17C96.89 23.3599 96.67 23.1399 96.67 22.8599C96.67 22.5799 96.89 22.3599 97.17 22.3599H105.2C105.48 22.3599 105.7 22.5799 105.7 22.8599C105.7 23.1399 105.48 23.3599 105.2 23.3599Z" fill="var(--illustration-stroke-color, #686868)"/>
<path d="M105.2 26.79H97.17C96.89 26.79 96.67 26.57 96.67 26.29C96.67 26.01 96.89 25.79 97.17 25.79H105.2C105.48 25.79 105.7 26.01 105.7 26.29C105.7 26.57 105.48 26.79 105.2 26.79Z" fill="var(--illustration-stroke-color, #686868)"/>
<path d="M105.2 30.22H97.17C96.89 30.22 96.67 30 96.67 29.72C96.67 29.44 96.89 29.22 97.17 29.22H105.2C105.48 29.22 105.7 29.44 105.7 29.72C105.7 30 105.48 30.22 105.2 30.22Z" fill="var(--illustration-stroke-color, #686868)"/>
<path d="M105.2 33.6499H97.17C96.89 33.6499 96.67 33.4299 96.67 33.1499C96.67 32.8699 96.89 32.6499 97.17 32.6499H105.2C105.48 32.6499 105.7 32.8699 105.7 33.1499C105.7 33.4299 105.48 33.6499 105.2 33.6499Z" fill="var(--illustration-stroke-color, #686868)"/>
<path d="M61.53 72.0298C60.78 72.0298 59.98 71.9398 59.14 71.7498C58.87 71.6898 58.7 71.4198 58.76 71.1498C58.82 70.8798 59.09 70.7098 59.36 70.7698C67.89 72.6998 71.24 63.0598 71.38 62.6498C71.47 62.3898 71.75 62.2498 72.01 62.3398C72.27 62.4298 72.41 62.7098 72.32 62.9698C72.3 63.0698 69.19 72.0298 61.53 72.0298Z" fill="var(--illustration-stroke-color, #686868)"/>
<path d="M62.06 77.38C61.15 77.38 60.18 77.28 59.14 77.04C58.87 76.98 58.7 76.71 58.76 76.44C58.82 76.17 59.09 76 59.36 76.06C67.93 77.99 71.57 70.49 71.72 70.17C71.84 69.92 72.14 69.81 72.39 69.93C72.64 70.05 72.75 70.34 72.63 70.59C72.6 70.68 69.36 77.38 62.06 77.38Z" fill="var(--illustration-stroke-color, #686868)"/>
<path d="M40.5 17.6299C40.33 17.6299 40.17 17.5399 40.07 17.3899L38.8 15.2799C38.66 15.0399 38.73 14.7399 38.97 14.5899C39.21 14.4499 39.51 14.5199 39.66 14.7599L40.93 16.8699C41.07 17.1099 41 17.4099 40.76 17.5599C40.68 17.6099 40.59 17.6299 40.5 17.6299Z" fill="var(--illustration-stroke-color, #686868)"/>
<path d="M45.36 62.4398H27.83C27.55 62.4398 27.33 62.2198 27.33 61.9398C27.33 61.6598 27.55 61.4398 27.83 61.4398H45.36C47.83 61.4398 49.84 59.4298 49.84 56.9598V49.5498C49.84 49.2698 50.06 49.0498 50.34 49.0498C50.62 49.0498 50.84 49.2698 50.84 49.5498V56.9598C50.85 59.9798 48.39 62.4398 45.36 62.4398Z" fill="var(--illustration-stroke-color, #686868)"/>
<g opacity="0.7">
<path opacity="0.7" d="M42.34 68.6199C43.174 68.6199 43.85 67.9438 43.85 67.1099C43.85 66.2759 43.174 65.5999 42.34 65.5999C41.5061 65.5999 40.83 66.2759 40.83 67.1099C40.83 67.9438 41.5061 68.6199 42.34 68.6199Z" fill="url(#paint1_linear_818_1776)"/>
</g>
<g opacity="0.7">
<path opacity="0.7" d="M36.93 69.1799C37.902 69.1799 38.69 68.3919 38.69 67.4199C38.69 66.4479 37.902 65.6599 36.93 65.6599C35.958 65.6599 35.17 66.4479 35.17 67.4199C35.17 68.3919 35.958 69.1799 36.93 69.1799Z" fill="url(#paint2_linear_818_1776)"/>
</g>
<path d="M42.34 69.4699C41.09 69.4699 40.07 68.4499 40.07 67.1999C40.07 65.9499 41.09 64.9299 42.34 64.9299C43.59 64.9299 44.61 65.9499 44.61 67.1999C44.61 68.4499 43.59 69.4699 42.34 69.4699ZM42.34 65.9299C41.64 65.9299 41.07 66.4999 41.07 67.1999C41.07 67.8999 41.64 68.4699 42.34 68.4699C43.04 68.4699 43.61 67.8999 43.61 67.1999C43.61 66.4999 43.04 65.9299 42.34 65.9299Z" fill="var(--illustration-stroke-color, #686868)"/>
<path d="M36.98 69.4699C35.73 69.4699 34.71 68.4499 34.71 67.1999C34.71 65.9499 35.73 64.9299 36.98 64.9299C38.23 64.9299 39.25 65.9499 39.25 67.1999C39.25 68.4499 38.24 69.4699 36.98 69.4699ZM36.98 65.9299C36.28 65.9299 35.71 66.4999 35.71 67.1999C35.71 67.8999 36.28 68.4699 36.98 68.4699C37.68 68.4699 38.25 67.8999 38.25 67.1999C38.25 66.4999 37.69 65.9299 36.98 65.9299Z" fill="var(--illustration-stroke-color, #686868)"/>
<path d="M31.8 69.68H27.74C27.46 69.68 27.24 69.46 27.24 69.18C27.24 68.9 27.46 68.68 27.74 68.68H31.8C32.28 68.68 32.69 68.07 32.69 67.34C32.69 66.62 32.28 66 31.8 66H27.74C27.46 66 27.24 65.78 27.24 65.5C27.24 65.22 27.46 65 27.74 65H31.8C32.84 65 33.69 66.05 33.69 67.34C33.68 68.63 32.84 69.68 31.8 69.68Z" fill="var(--illustration-stroke-color, #686868)"/>
<path d="M49.8 76.68H27.74C27.46 76.68 27.24 76.46 27.24 76.18C27.24 75.9 27.46 75.68 27.74 75.68H49.8C50.28 75.68 50.69 75.07 50.69 74.34C50.69 73.62 50.28 73 49.8 73H27.74C27.46 73 27.24 72.78 27.24 72.5C27.24 72.22 27.46 72 27.74 72H49.8C50.84 72 51.69 73.05 51.69 74.34C51.68 75.63 50.84 76.68 49.8 76.68Z" fill="var(--illustration-stroke-color, #686868)"/>
<path d="M50.99 40.47C49.12 40.47 47.61 38.95 47.61 37.09C47.61 35.22 49.13 33.71 50.99 33.71C52.86 33.71 54.37 35.23 54.37 37.09C54.37 38.95 52.86 40.47 50.99 40.47ZM50.99 34.7C49.68 34.7 48.61 35.77 48.61 37.08C48.61 38.39 49.68 39.46 50.99 39.46C52.3 39.46 53.37 38.39 53.37 37.08C53.37 35.77 52.3 34.7 50.99 34.7Z" fill="var(--illustration-stroke-color, #686868)"/>
<path d="M71.75 43.53H67.42C67.14 43.53 66.92 43.31 66.92 43.03C66.92 42.75 67.14 42.53 67.42 42.53H71.75C72.03 42.53 72.25 42.75 72.25 43.03C72.25 43.31 72.03 43.53 71.75 43.53Z" fill="var(--illustration-stroke-color, #686868)"/>
<defs>
<linearGradient id="paint0_linear_818_1776" x1="95.1463" y1="29.1469" x2="106.967" y2="29.1469" gradientUnits="userSpaceOnUse">
<stop stop-color="#FF7002"/>
<stop offset="0.119792" stop-color="#FE7304"/>
<stop offset="0.385417" stop-color="#FC7C0A"/>
<stop offset="0.6759" stop-color="#F88B15"/>
<stop offset="0.8364" stop-color="#F3A125"/>
<stop offset="0.9849" stop-color="#ECBD39"/>
<stop offset="1" stop-color="#EBC03B"/>
</linearGradient>
<linearGradient id="paint1_linear_818_1776" x1="40.834" y1="67.1126" x2="43.8468" y2="67.1126" gradientUnits="userSpaceOnUse">
<stop stop-color="#FF7002"/>
<stop offset="0.2957" stop-color="#FE7304"/>
<stop offset="0.4996" stop-color="#FC7C0A"/>
<stop offset="0.6759" stop-color="#F88B15"/>
<stop offset="0.8364" stop-color="#F3A125"/>
<stop offset="0.9849" stop-color="#ECBD39"/>
<stop offset="1" stop-color="#EBC03B"/>
</linearGradient>
<linearGradient id="paint2_linear_818_1776" x1="35.1713" y1="67.4176" x2="38.6905" y2="67.4176" gradientUnits="userSpaceOnUse">
<stop stop-color="#FF7002"/>
<stop offset="0.2957" stop-color="#FE7304"/>
<stop offset="0.4996" stop-color="#FC7C0A"/>
<stop offset="0.6759" stop-color="#F88B15"/>
<stop offset="0.8364" stop-color="#F3A125"/>
<stop offset="0.9849" stop-color="#ECBD39"/>
<stop offset="1" stop-color="#EBC03B"/>
</linearGradient>
</defs>
</svg>
