<svg width="140" height="120" viewBox="0 0 140 120" fill="none" xmlns="http://www.w3.org/2000/svg">
<g clip-path="url(#clip0_1055_60)">
<g clip-path="url(#clip1_1055_60)">
<g opacity="0.7">
<path d="M125.92 26.8999C125.92 26.8999 128.45 32.2699 122.65 36.9699L121.65 32.7399" fill="url(#paint0_linear_1055_60)"/>
</g>
<path d="M125.69 26.5701C125.69 26.5701 129.51 31.1201 122.29 37.3801L121.07 32.6801" stroke="var(--illustration-stroke-color, #686868)" stroke-linecap="round" stroke-linejoin="round"/>
<path opacity="0.3" d="M54.79 79.0199L54.33 80.4199C54.69 81.0699 54.93 81.0699 55.66 81.1699C59.18 81.5699 62.65 80.0699 64.78 77.2299C65.12 76.8099 65.2 76.6999 65.23 76.3099C65.3 75.2999 65.09 74.2899 64.62 73.3899L64.13 72.3899C64.13 72.3899 65.86 76.6899 59.69 78.4699C53.52 80.2499 54.79 79.0199 54.79 79.0199V79.0199Z" fill="#262626"/>
<path opacity="0.3" d="M81.33 117.77C81.33 119.77 68.63 121.44 52.97 121.44C37.31 121.44 24.62 119.8 24.62 117.77C24.62 116.7 28.17 115.77 33.85 115.06C34.78 114.95 34.6 116.22 34.85 117.24C35.03 118.3 35.98 119.04 37.05 118.97C38.34 118.89 37.84 121.68 44.5 119.76C45.81 119.06 46.86 117.96 47.5 116.63C48.05 115.42 47.64 114.16 48.28 114.14C49.8 114.14 51.37 114.09 52.97 114.09C55.26 114.09 53.97 114.09 56.07 114.2C56.88 114.2 56.61 116.53 57.87 117.94C59.37 119.33 61.27 120.22 63.3 120.49C64.92 120.59 67.3 119.08 68.3 118.69C68.82 118.48 70.41 114.87 70.93 114.92C77.28 115.6 81.33 116.63 81.33 117.77V117.77Z" fill="#262626"/>
<path d="M29.51 57.71L29.67 49.66C29.67 48.4 30.69 47.37 31.95 47.36H31.96L36.41 47.26" stroke="var(--illustration-stroke-color, #686868)" stroke-linecap="round" stroke-linejoin="round"/>
<path d="M52.17 16.0601L52.25 18.2101" stroke="var(--illustration-stroke-color, #686868)" stroke-linecap="round" stroke-linejoin="round"/>
<path d="M52.18 15.9C53.6601 15.9 54.86 14.6912 54.86 13.2C54.86 11.7088 53.6601 10.5 52.18 10.5C50.6999 10.5 49.5 11.7088 49.5 13.2C49.5 14.6912 50.6999 15.9 52.18 15.9Z" stroke="var(--illustration-stroke-color, #686868)" stroke-linecap="round" stroke-linejoin="round"/>
<path d="M52.18 15.9C53.6601 15.9 54.86 14.6912 54.86 13.2C54.86 11.7088 53.6601 10.5 52.18 10.5C50.6999 10.5 49.5 11.7088 49.5 13.2C49.5 14.6912 50.6999 15.9 52.18 15.9Z" fill="#FF8853" stroke="var(--illustration-stroke-color, #686868)" stroke-linecap="round" stroke-linejoin="round"/>
<path d="M68.53 81.8401L69.45 95.7201L69.76 99.5201L70.31 112.91C70.42 116.66 67.47 119.8 63.71 119.91C63.65 119.91 63.59 119.91 63.53 119.91C59.88 119.91 56.89 117.02 56.74 113.38L54.59 96.5701C54.41 95.3101 53.34 94.3601 52.06 94.3301C50.72 94.3301 49.59 95.3301 49.45 96.6601L47.91 113.15C47.91 116.91 44.87 119.97 41.11 119.98C37.35 119.97 34.3 116.91 34.31 113.15L35.22 82.5701" stroke="var(--illustration-stroke-color, #686868)" stroke-linecap="round" stroke-linejoin="round"/>
<path d="M50.24 84.4201C51.29 86.9801 52.96 87.2301 55.56 87.2301C56.96 87.0801 58.34 86.7701 59.66 86.3001C73.53 80.5801 77.21 75.4101 77.84 68.3901C78.67 59.2401 72.16 52.3901 68.05 49.0601" stroke="var(--illustration-stroke-color, #686868)" stroke-linecap="round" stroke-linejoin="round"/>
<path d="M68.45 62.1799C67.2 65.6699 63.86 69.5199 60.24 71.8899" stroke="var(--illustration-stroke-color, #686868)" stroke-linecap="round" stroke-linejoin="round"/>
<g opacity="0.7">
<path d="M54.12 75.1899C54.34 73.7799 55.49 73.0999 57.7 72.2599C60.45 71.2099 62.98 71.2599 63.59 72.8299C64.2 74.3999 62.7 76.7599 59.95 77.8299C58.06 78.5499 56.54 79.2699 55.35 78.6999" fill="url(#paint1_linear_1055_60)"/>
</g>
<path d="M54.8 78.8599C56.44 79.1799 58.14 78.9799 59.66 78.2899C62.66 77.0399 64.66 74.7699 64.05 73.1999C63.44 71.6299 60.43 71.3799 57.37 72.6199C56.05 73.0999 54.86 73.8799 53.9 74.9099" stroke="var(--illustration-stroke-color, #686868)" stroke-linecap="round" stroke-linejoin="round"/>
<path d="M37.73 48.97L35.05 50.69C29.55 55.96 26.37 63.19 26.21 70.8C26.15 73.56 28.33 82.8 45.91 84.8H47.24C50.93 84.8 54.74 82.89 54.76 78.6C54.81 77.86 54.73 77.11 54.53 76.39C53.75 74.04 51.78 72.7 47.58 72.28C42.12 71.73 38.81 68.08 37.03 67.48" stroke="var(--illustration-stroke-color, #686868)" stroke-linecap="round" stroke-linejoin="round"/>
<path d="M58.89 78.6599C58.89 78.6599 61.95 82.5399 62.24 85.0799" stroke="var(--illustration-stroke-color, #686868)" stroke-linecap="round" stroke-linejoin="round"/>
<path d="M61.99 77.23C61.99 77.23 64.91 80.9 65.2 83.44" stroke="var(--illustration-stroke-color, #686868)" stroke-linecap="round" stroke-linejoin="round"/>
<path d="M33.85 51.8C36.93 56.37 38.34 61.85 37.85 67.34" stroke="var(--illustration-stroke-color, #686868)" stroke-linecap="round" stroke-linejoin="round"/>
<path d="M37.17 49.23C37.17 49.23 42.59 56.44 41.33 69.42" stroke="var(--illustration-stroke-color, #686868)" stroke-linecap="round" stroke-linejoin="round"/>
<path d="M67.45 63.8101C67.45 63.8101 65.78 54.9701 68.83 49.5801" stroke="var(--illustration-stroke-color, #686868)" stroke-linecap="round" stroke-linejoin="round"/>
<path d="M65.06 67.4901C62.84 63.0201 62.33 57.8901 63.64 53.0801" stroke="var(--illustration-stroke-color, #686868)" stroke-linecap="round" stroke-linejoin="round"/>
<path d="M52.75 56.4001C63.2048 56.4001 71.68 47.8846 71.68 37.3801C71.68 26.8757 63.2048 18.3601 52.75 18.3601C42.2953 18.3601 33.82 26.8757 33.82 37.3801C33.82 47.8846 42.2953 56.4001 52.75 56.4001Z" stroke="var(--illustration-stroke-color, #686868)" stroke-linecap="round" stroke-linejoin="round"/>
<path d="M72.55 52.7701C83.71 46.9701 84.03 55.4401 83.45 60.2001C83.4 60.7001 83.76 61.1501 84.26 61.2001C84.54 61.2301 84.81 61.1301 85 60.9401L114.59 31.1101" stroke="var(--illustration-stroke-color, #686868)" stroke-linecap="round" stroke-linejoin="round"/>
<path d="M116.33 32.6699L103.98 52.9699C103.98 52.9699 116.38 50.0699 104.98 66.5699L96.91 81.2799C96.62 81.6899 96.72 82.2599 97.13 82.5499C97.37 82.7199 97.68 82.7599 97.96 82.6599C103.49 80.6599 115.04 77.9799 111.08 91.7299C110.94 92.2099 111.22 92.7199 111.7 92.8599C111.92 92.9199 112.16 92.8999 112.36 92.7999C118.54 89.6699 136.65 84.6899 125.8 107.8C125.58 108.25 125.77 108.8 126.22 109.02C126.4 109.11 126.6 109.13 126.8 109.09H139.45" stroke="var(--illustration-stroke-color, #686868)" stroke-linecap="round" stroke-linejoin="round"/>
<path d="M34.79 90.7499C34.79 90.7499 5.67 86.9699 9.5 108.97L1.5 109.1" stroke="var(--illustration-stroke-color, #686868)" stroke-linecap="round" stroke-linejoin="round"/>
<path d="M23.1682 84.4596C24.8437 82.0191 25.0539 79.2526 23.6379 78.2805C22.2219 77.3084 19.7158 78.4988 18.0403 80.9392C16.3649 83.3797 16.1546 86.1462 17.5707 87.1183C18.9867 88.0905 21.4928 86.9001 23.1682 84.4596Z" stroke="var(--illustration-stroke-color, #686868)" stroke-linecap="round" stroke-linejoin="round"/>
<path d="M129.39 52.8L130.39 53.35L129.39 53.91L128.85 54.93L128.3 53.91L127.31 53.35L128.3 52.8L128.85 51.78L129.39 52.8Z" fill="var(--illustration-stroke-color, #686868)"/>
<path d="M84.14 40.23L85.14 40.79L84.14 41.34L83.59 42.36L83.05 41.34L82.05 40.79L83.05 40.23L83.59 39.21L84.14 40.23Z" fill="var(--illustration-stroke-color, #686868)"/>
<path d="M102.26 31.1201L103.26 31.6801L102.26 32.2401L101.72 33.2601L101.17 32.2401L100.18 31.6801L101.17 31.1201L101.72 30.1001L102.26 31.1201Z" fill="var(--illustration-stroke-color, #686868)"/>
<path d="M13.88 64.3301L14.88 64.8901L13.88 65.4501L13.33 66.4701L12.79 65.4501L11.79 64.8901L12.79 64.3301L13.33 63.3101L13.88 64.3301Z" fill="var(--illustration-stroke-color, #686868)"/>
<path d="M19.62 32.9699C20.8737 32.9699 21.89 31.9491 21.89 30.6899C21.89 29.4307 20.8737 28.4099 19.62 28.4099C18.3663 28.4099 17.35 29.4307 17.35 30.6899C17.35 31.9491 18.3663 32.9699 19.62 32.9699Z" stroke="var(--illustration-stroke-color, #686868)" stroke-linecap="round" stroke-linejoin="round"/>
<path opacity="0.3" d="M124.45 27.97V28.06C124.45 28.15 124.52 28.06 124.53 28.06C124.54 28.06 124.53 28 124.53 27.96C124.53 27.92 124.39 27.84 124.45 27.97ZM126.45 26.19C126.57 26.09 126.71 26.04 126.59 26.14C126.47 26.24 126.53 26.19 126.46 26.21C126.39 26.23 126.31 26.22 126.45 26.14V26.19ZM122.06 32.5C122.06 32.5 122 32.55 121.93 32.59L121.99 32.54L122.06 32.5ZM122.33 30.74C122.33 30.74 122.27 30.74 122.33 30.68C122.39 30.62 122.33 30.68 122.4 30.68C122.47 30.68 122.4 30.73 122.32 30.69V30.74H122.33ZM122.65 30.41H122.57V30.33C122.57 30.33 122.57 30.33 122.64 30.33C122.71 30.33 122.65 30.35 122.64 30.36V30.41H122.65ZM123.22 29.85H123.16C123.16 29.85 123.26 29.85 123.24 29.85C123.22 29.85 123.22 29.78 123.21 29.8V29.85H123.22ZM124.56 27.85C124.47 27.85 124.41 27.8 124.42 27.78C124.43 27.76 124.52 27.78 124.59 27.78L124.56 27.85Z" fill="#262626"/>
<g opacity="0.7">
<path d="M129.45 12.97C129.39 12.58 128.54 12.97 128.45 12.54C128.26 12.53 128.06 12.53 127.87 12.54C124.64 13 121.75 14.77 119.87 17.44L117.22 21.05L113.12 27.32L116.12 29.58L121.12 33.03L126.23 25.97L129.3 21.52C131.16 18.97 129.82 15.59 129.45 12.97V12.97ZM125.26 21.87C124.62 22.8 123.74 23.43 122.81 22.78C121.81 22 121.47 20.64 122 19.49C122.64 18.56 124.2 18.77 125.12 19.42C126.04 20.07 125.89 20.97 125.25 21.86L125.26 21.87Z" fill="url(#paint2_linear_1055_60)"/>
</g>
<path d="M129.21 12.8301L128.5 12.7701C125.06 12.6001 121.77 14.2101 119.8 17.0401L117.23 20.6301L112.77 26.8401L116.94 29.9701L121.08 33.1201L125.77 26.5801L128.21 23.1901C130.08 20.6201 130.64 17.3301 129.74 14.2801C129.6 13.8301 129.21 12.8701 129.21 12.8701V12.8301V12.8301Z" stroke="var(--illustration-stroke-color, #686868)" stroke-linecap="round" stroke-linejoin="round"/>
<path d="M123.63 22.62C124.757 22.62 125.67 21.7022 125.67 20.57C125.67 19.4378 124.757 18.52 123.63 18.52C122.503 18.52 121.59 19.4378 121.59 20.57C121.59 21.7022 122.503 22.62 123.63 22.62Z" stroke="var(--illustration-stroke-color, #686868)" stroke-linecap="round" stroke-linejoin="round"/>
<g opacity="0.7">
<path d="M116.85 20.2301C116.85 20.2301 110.95 19.5701 108.36 26.6101L112.7 26.2201" fill="url(#paint3_linear_1055_60)"/>
</g>
<path d="M118.63 31.39L118.02 32.7701C117.95 33.0001 117.72 33.13 117.49 33.06C117.45 33.05 117.41 33.03 117.37 33.01L114.17 30.5C113.98 30.35 113.94 30.08 114.09 29.88C114.11 29.85 114.14 29.82 114.17 29.8L115.37 28.8" stroke="var(--illustration-stroke-color, #686868)" stroke-linecap="round" stroke-linejoin="round"/>
<path d="M117.33 20.2701C117.33 20.2701 111.7 18.2101 108.13 27.0601L112.97 26.7001" stroke="var(--illustration-stroke-color, #686868)" stroke-linecap="round" stroke-linejoin="round"/>
<path d="M123.63 22.62C124.757 22.62 125.67 21.7022 125.67 20.57C125.67 19.4378 124.757 18.52 123.63 18.52C122.503 18.52 121.59 19.4378 121.59 20.57C121.59 21.7022 122.503 22.62 123.63 22.62Z" stroke="var(--illustration-stroke-color, #686868)" stroke-linecap="round" stroke-linejoin="round"/>
<path d="M55.93 76.6L59.69 74.74" stroke="var(--illustration-stroke-color, #686868)" stroke-linecap="round" stroke-linejoin="round"/>
<path d="M59.08 73.3799L60.53 75.8299L62.01 73.4499L59.08 73.3799Z" stroke="var(--illustration-stroke-color, #686868)" stroke-linecap="round" stroke-linejoin="round"/>
<path d="M50.08 67.8401L52.8 71.6201" stroke="var(--illustration-stroke-color, #686868)" stroke-linecap="round" stroke-linejoin="round"/>
<path d="M54.05 67.1201L54.86 70.5901" stroke="var(--illustration-stroke-color, #686868)" stroke-linecap="round" stroke-linejoin="round"/>
<path d="M70.26 29.73C67.57 29.43 64.86 29.37 62.16 29.56C54.5 30.12 51.34 33.13 50.08 35.14C49.52 36.4 49.34 37.78 49.55 39.14C50.03 42.67 53.66 50.97 66.37 50.61" stroke="var(--illustration-stroke-color, #686868)" stroke-linecap="round" stroke-linejoin="round"/>
<path d="M59.84 59.4299H55.77C55.5325 59.4299 55.34 59.6224 55.34 59.8599V64.0699C55.34 64.3074 55.5325 64.4999 55.77 64.4999H59.84C60.0775 64.4999 60.27 64.3074 60.27 64.0699V59.8599C60.27 59.6224 60.0775 59.4299 59.84 59.4299Z" stroke="var(--illustration-stroke-color, #686868)" stroke-linecap="round" stroke-linejoin="round"/>
<path d="M119.9 78.3701C121.154 78.3701 122.17 77.3493 122.17 76.0901C122.17 74.8308 121.154 73.8101 119.9 73.8101C118.646 73.8101 117.63 74.8308 117.63 76.0901C117.63 77.3493 118.646 78.3701 119.9 78.3701Z" stroke="var(--illustration-stroke-color, #686868)" stroke-linecap="round" stroke-linejoin="round"/>
<path d="M41.39 41.48C42.9806 41.48 44.27 40.1906 44.27 38.6C44.27 37.0094 42.9806 35.72 41.39 35.72C39.7994 35.72 38.51 37.0094 38.51 38.6C38.51 40.1906 39.7994 41.48 41.39 41.48Z" stroke="var(--illustration-stroke-color, #686868)" stroke-linecap="round" stroke-linejoin="round"/>
</g>
</g>
<defs>
<linearGradient id="paint0_linear_1055_60" x1="116.284" y1="31.724" x2="113.498" y2="23.7043" gradientUnits="userSpaceOnUse">
<stop stop-color="#FF7002"/>
<stop offset="0.3" stop-color="#FE7304"/>
<stop offset="0.5" stop-color="#FC7C0A"/>
<stop offset="0.68" stop-color="#F88B15"/>
<stop offset="0.84" stop-color="#F3A125"/>
<stop offset="0.98" stop-color="#ECBD39"/>
<stop offset="1" stop-color="#EBC03B"/>
</linearGradient>
<linearGradient id="paint1_linear_1055_60" x1="66.2036" y1="76.601" x2="72.6004" y2="81.0469" gradientUnits="userSpaceOnUse">
<stop stop-color="#FF7002"/>
<stop offset="0.3" stop-color="#FE7304"/>
<stop offset="0.5" stop-color="#FC7C0A"/>
<stop offset="0.68" stop-color="#F88B15"/>
<stop offset="0.84" stop-color="#F3A125"/>
<stop offset="0.98" stop-color="#ECBD39"/>
<stop offset="1" stop-color="#EBC03B"/>
</linearGradient>
<linearGradient id="paint2_linear_1055_60" x1="113.06" y1="22.78" x2="130.26" y2="22.78" gradientUnits="userSpaceOnUse">
<stop stop-color="#FF7002"/>
<stop offset="0.3" stop-color="#FE7304"/>
<stop offset="0.5" stop-color="#FC7C0A"/>
<stop offset="0.68" stop-color="#F88B15"/>
<stop offset="0.84" stop-color="#F3A125"/>
<stop offset="0.98" stop-color="#ECBD39"/>
<stop offset="1" stop-color="#EBC03B"/>
</linearGradient>
<linearGradient id="paint3_linear_1055_60" x1="108.36" y1="23.4101" x2="116.85" y2="23.4101" gradientUnits="userSpaceOnUse">
<stop stop-color="#FF7002"/>
<stop offset="0.3" stop-color="#FE7304"/>
<stop offset="0.5" stop-color="#FC7C0A"/>
<stop offset="0.68" stop-color="#F88B15"/>
<stop offset="0.84" stop-color="#F3A125"/>
<stop offset="0.98" stop-color="#ECBD39"/>
<stop offset="1" stop-color="#EBC03B"/>
</linearGradient>
<clipPath id="clip0_1055_60">
<rect width="140" height="120" fill="white"/>
</clipPath>
<clipPath id="clip1_1055_60">
<rect width="138.95" height="111.44" fill="white" transform="translate(1 10)"/>
</clipPath>
</defs>
</svg>
