<svg width="140" height="120" viewBox="0 0 140 120" fill="none" xmlns="http://www.w3.org/2000/svg">
<g clip-path="url(#clip0_1367_37)">
<path opacity="0.7" d="M78.5999 35.49C78.5999 35.49 82.4399 33.2 84.8599 33.24C84.8599 33.24 78.8599 36.46 78.0699 39.59L78.5999 35.49Z" fill="url(#paint0_linear_1367_37)"/>
<path opacity="0.7" d="M73.0699 47.2799L76.6099 43.4199C76.6099 43.4199 73.01 55.9199 88.09 60.7299C88.09 60.7299 75.3099 61.9499 73.0699 47.2799Z" fill="url(#paint1_linear_1367_37)"/>
<path opacity="0.3" d="M114.9 113.28C114.9 115.02 94.55 116.42 69.45 116.42C44.35 116.42 24 115.01 24 113.28C24 112.56 27.85 111.18 32.38 111.1C33.08 111.09 33.9 114.27 36.1 114.14C37.04 114.08 40.28 114.62 42.33 113.74C44.13 112.96 44.76 110.75 45.7 110.71C48.98 110.57 49.33 110.59 52.96 110.49C54.17 110.46 53.11 113.42 58.04 114.49C58.88 114.67 62.51 114.11 64.74 112.87C65.65 112.37 65.44 110.11 66.51 110.1C67.8 110.09 68.11 110.14 69.45 110.14C73.49 110.14 70.94 110.19 74.67 110.26C77.31 110.31 78.32 113.18 80.75 113.26C82.45 113.32 92.11 114.83 93.69 114.72C104.16 114.03 106.02 111.38 108.09 111.49C111 111.64 114.9 112.46 114.9 113.28Z" fill="#262626"/>
<path d="M59.81 52.8601C70.4581 52.8601 79.09 44.2281 79.09 33.58C79.09 22.932 70.4581 14.3 59.81 14.3C49.162 14.3 40.53 22.932 40.53 33.58C40.53 44.2281 49.162 52.8601 59.81 52.8601Z" stroke="var(--illustration-stroke-color, #686868)" stroke-miterlimit="10" stroke-linecap="round" stroke-linejoin="round"/>
<path d="M51.84 88.5101L52.06 108.04C52.51 111.92 55.83 114.82 59.73 114.77C63.68 114.71 66.93 111.64 67.2 107.69C67.99 96.2001 65.69 76.2201 64.85 52.0901" stroke="var(--illustration-stroke-color, #686868)" stroke-miterlimit="10" stroke-linecap="round" stroke-linejoin="round"/>
<path d="M32.5 58.3101L31.54 77.7201L31.34 105.55C31.2 111.24 33.96 114.65 38.76 114.57L39.31 114.56C42.48 114.51 45.27 112.47 46.28 109.46L48.25 89.6301L53.03 87.8401" stroke="var(--illustration-stroke-color, #686868)" stroke-miterlimit="10" stroke-linecap="round" stroke-linejoin="round"/>
<path d="M32.5 59.5C32.53 59.12 39.38 53.9299 32.15 41.1499" stroke="var(--illustration-stroke-color, #686868)" stroke-miterlimit="10" stroke-linecap="round" stroke-linejoin="round"/>
<path d="M32.39 64.3401C32.39 64.3401 45.16 53.2401 37.83 37.3701" stroke="var(--illustration-stroke-color, #686868)" stroke-miterlimit="10" stroke-linecap="round" stroke-linejoin="round"/>
<path d="M65.99 64.5101C68.72 57.9701 69.98 49.9301 69.98 49.9301C69.98 49.9301 71.62 50.6801 73.77 49.6101" stroke="var(--illustration-stroke-color, #686868)" stroke-miterlimit="10" stroke-linecap="round" stroke-linejoin="round"/>
<path d="M86.1 60.3401C80.89 63.2101 76.02 65.6001 65.66 64.5101" stroke="var(--illustration-stroke-color, #686868)" stroke-miterlimit="10" stroke-linecap="round" stroke-linejoin="round"/>
<path d="M30.105 43L30 38.9296C30 36.7588 30.9924 35 32.2233 35H40" stroke="var(--illustration-stroke-color, #686868)" stroke-miterlimit="10" stroke-linecap="round" stroke-linejoin="round"/>
<path d="M40.5 36C40.5 36 24.8812 38.3287 24.9999 63C25.0215 68.0234 27.7331 74.935 31.5 78.5" stroke="var(--illustration-stroke-color, #686868)" stroke-miterlimit="10" stroke-linecap="round" stroke-linejoin="round"/>
<path d="M59.89 60.9201H55.82C55.58 60.9201 55.39 60.7301 55.39 60.4901V56.2801C55.39 56.0401 55.58 55.8501 55.82 55.8501H59.89C60.13 55.8501 60.32 56.0401 60.32 56.2801V60.4901C60.32 60.7301 60.12 60.9201 59.89 60.9201Z" stroke="var(--illustration-stroke-color, #686868)" stroke-miterlimit="10" stroke-linecap="round" stroke-linejoin="round"/>
<path d="M54.29 38.55C55.8806 38.55 57.17 37.2606 57.17 35.67C57.17 34.0795 55.8806 32.79 54.29 32.79C52.6995 32.79 51.41 34.0795 51.41 35.67C51.41 37.2606 52.6995 38.55 54.29 38.55Z" stroke="var(--illustration-stroke-color, #686868)" stroke-miterlimit="10" stroke-linecap="round" stroke-linejoin="round"/>
<path d="M58.6 11.5601L58.68 14.0701" stroke="var(--illustration-stroke-color, #686868)" stroke-miterlimit="10" stroke-linecap="round" stroke-linejoin="round"/>
<path d="M58.6101 11.4C60.0902 11.4 61.2901 10.1912 61.2901 8.7C61.2901 7.20883 60.0902 6 58.6101 6C57.1299 6 55.9301 7.20883 55.9301 8.7C55.9301 10.1912 57.1299 11.4 58.6101 11.4Z" fill="#FF8853"/>
<path d="M58.6101 11.4C60.0902 11.4 61.2901 10.1912 61.2901 8.7C61.2901 7.20883 60.0902 6 58.6101 6C57.1299 6 55.9301 7.20883 55.9301 8.7C55.9301 10.1912 57.1299 11.4 58.6101 11.4Z" stroke="var(--illustration-stroke-color, #686868)" stroke-miterlimit="10" stroke-linecap="round" stroke-linejoin="round"/>
<path d="M65.9 51.4799C62.03 46.4399 63.18 39.1699 67.78 34.5599C70.7 31.6299 74.89 30.9299 78.99 32.0799" stroke="var(--illustration-stroke-color, #686868)" stroke-miterlimit="10" stroke-linecap="round" stroke-linejoin="round"/>
<path d="M103.28 113.62C95.8 115.32 88.03 115.21 80.6 113.31C76.12 111.63 73.49 110.12 73.49 106.2V81.12C73.49 77.59 75.39 74.34 78.46 72.6L78.49 69.72L78.53 69.74C79.79 72.91 105.88 73.59 106.77 69.72L106.84 72.6L106.96 72.67C109.94 74.43 111.77 77.63 111.77 81.09V106.18C111.77 109.38 108.96 111.3 106.36 112.54C105.38 113.03 104.35 113.38 103.28 113.62Z" stroke="var(--illustration-stroke-color, #686868)" stroke-miterlimit="10" stroke-linecap="round" stroke-linejoin="round"/>
<path d="M78.49 69.7301C78.49 69.7301 91.1 66.2901 106.78 69.7301" stroke="var(--illustration-stroke-color, #686868)" stroke-miterlimit="10" stroke-linecap="round" stroke-linejoin="round"/>
<path d="M100 94.1101C100 97.9901 96.86 101.13 92.98 101.13C89.1 101.13 85.96 97.9901 85.96 94.1101C85.96 90.2301 89.1 87.0901 92.98 87.0901C94.1 87.0901 95.16 87.3501 96.09 87.8201C96.67 88.1101 97.2 88.4701 97.68 88.9001C98.11 89.2901 98.49 89.7301 98.81 90.2101C99.57 91.3201 100 92.6601 100 94.1101Z" stroke="var(--illustration-stroke-color, #686868)" stroke-miterlimit="10" stroke-linecap="round" stroke-linejoin="round"/>
<path d="M92.2399 98.3702C92.9027 98.3702 93.4399 97.833 93.4399 97.1702C93.4399 96.5075 92.9027 95.9702 92.2399 95.9702C91.5772 95.9702 91.0399 96.5075 91.0399 97.1702C91.0399 97.833 91.5772 98.3702 92.2399 98.3702Z" fill="var(--illustration-stroke-color, #686868)"/>
<path d="M87.91 98.0702C88.5727 98.0702 89.11 97.5329 89.11 96.8702C89.11 96.2074 88.5727 95.6702 87.91 95.6702C87.2472 95.6702 86.71 96.2074 86.71 96.8702C86.71 97.5329 87.2472 98.0702 87.91 98.0702Z" fill="var(--illustration-stroke-color, #686868)"/>
<path d="M95.6299 92.64C96.2927 92.64 96.8299 92.1027 96.8299 91.44C96.8299 90.7773 96.2927 90.24 95.6299 90.24C94.9672 90.24 94.4299 90.7773 94.4299 91.44C94.4299 92.1027 94.9672 92.64 95.6299 92.64Z" fill="var(--illustration-stroke-color, #686868)"/>
<path d="M97.4999 96.5201C97.9638 96.5201 98.3399 96.144 98.3399 95.6801C98.3399 95.2162 97.9638 94.8401 97.4999 94.8401C97.036 94.8401 96.6599 95.2162 96.6599 95.6801C96.6599 96.144 97.036 96.5201 97.4999 96.5201Z" fill="var(--illustration-stroke-color, #686868)"/>
<path d="M91.2699 89.98C92.01 89.98 92.6099 89.3801 92.6099 88.64C92.6099 87.9 92.01 87.3 91.2699 87.3C90.5299 87.3 89.9299 87.9 89.9299 88.64C89.9299 89.3801 90.5299 89.98 91.2699 89.98Z" fill="var(--illustration-stroke-color, #686868)"/>
<path d="M87.1 92.7801C87.5694 92.7801 87.95 92.3995 87.95 91.9301C87.95 91.4606 87.5694 91.0801 87.1 91.0801C86.6306 91.0801 86.25 91.4606 86.25 91.9301C86.25 92.3995 86.6306 92.7801 87.1 92.7801Z" fill="var(--illustration-stroke-color, #686868)"/>
<path d="M106.1 105.16H79.12C79.12 104.64 78.7 104.21 78.17 104.21V83.8899C78.69 83.8899 79.12 83.4699 79.12 82.9399H106.1C106.1 83.4599 106.52 83.8899 107.05 83.8899V104.21C106.52 104.21 106.1 104.63 106.1 105.16Z" stroke="var(--illustration-stroke-color, #686868)" stroke-width="1.0535" stroke-miterlimit="10" stroke-linecap="round" stroke-linejoin="round"/>
<path d="M87.1199 60.3301C79.7899 60.3301 73.8099 54.5701 73.4399 47.3301" stroke="var(--illustration-stroke-color, #686868)" stroke-miterlimit="10" stroke-linecap="round" stroke-linejoin="round"/>
<path d="M79.54 35.2299C81.71 33.7799 84.32 32.9399 87.12 32.9399" stroke="var(--illustration-stroke-color, #686868)" stroke-miterlimit="10" stroke-linecap="round" stroke-linejoin="round"/>
<path d="M90.1201 60.64C97.6808 60.64 103.81 54.3899 103.81 46.68C103.81 38.9701 97.6808 32.72 90.1201 32.72C82.5593 32.72 76.4301 38.9701 76.4301 46.68C76.4301 54.3899 82.5593 60.64 90.1201 60.64Z" stroke="var(--illustration-stroke-color, #686868)" stroke-width="1.0098" stroke-miterlimit="10" stroke-linecap="round" stroke-linejoin="round"/>
<path d="M90.29 57.2899C96.0503 57.2899 100.72 52.6203 100.72 46.8599C100.72 41.0996 96.0503 36.4299 90.29 36.4299C84.5297 36.4299 79.86 41.0996 79.86 46.8599C79.86 52.6203 84.5297 57.2899 90.29 57.2899Z" stroke="var(--illustration-stroke-color, #686868)" stroke-miterlimit="10" stroke-linecap="round" stroke-linejoin="round"/>
</g>
<defs>
<linearGradient id="paint0_linear_1367_37" x1="78.0691" y1="36.4152" x2="84.8599" y2="36.4152" gradientUnits="userSpaceOnUse">
<stop stop-color="#FF7002"/>
<stop offset="0.2957" stop-color="#FE7304"/>
<stop offset="0.4996" stop-color="#FC7C0A"/>
<stop offset="0.6759" stop-color="#F88B15"/>
<stop offset="0.8364" stop-color="#F3A125"/>
<stop offset="0.9849" stop-color="#ECBD39"/>
<stop offset="1" stop-color="#EBC03B"/>
</linearGradient>
<linearGradient id="paint1_linear_1367_37" x1="73.0668" y1="52.0853" x2="88.0898" y2="52.0853" gradientUnits="userSpaceOnUse">
<stop stop-color="#FF7002"/>
<stop offset="0.2957" stop-color="#FE7304"/>
<stop offset="0.4996" stop-color="#FC7C0A"/>
<stop offset="0.6759" stop-color="#F88B15"/>
<stop offset="0.8364" stop-color="#F3A125"/>
<stop offset="0.9849" stop-color="#ECBD39"/>
<stop offset="1" stop-color="#EBC03B"/>
</linearGradient>
<clipPath id="clip0_1367_37">
<rect width="91.04" height="110.92" fill="white" transform="translate(24 5)"/>
</clipPath>
</defs>
</svg>
